# xmcd
#
# Track frame offsets:
#	172
#	17962
#	35137
#	57112
#	70287
#	87860
#	107982
#	126075
#	140540
#	158270
#
# Disc length: 2321 seconds
#
# Revision: 1
# Processed by: cddbd v1.4PL0 Copyright (c) Steve Scherf et al.
# Submitted via: audiograbber 1.81.03
#
DISCID=85090f0a
DTITLE=SmokeHouse - Swamp Jive
DYEAR=1992
DGENRE=Blues
TTITLE0=Brickhouse Woman
TTITLE1=Tunnel Vision
TTITLE2=Swamp Devil
TTITLE3=I Read That Letter
TTITLE4=Swamptown
TTITLE5=Hip Shakin' Woman
TTITLE6=Dooby Brown
TTITLE7=Bring It To Jerome
TTITLE8=Town Crier
TTITLE9=Swamp Jive
EXTD=
EXTT0=
EXTT1=
EXTT2=
EXTT3=
EXTT4=
EXTT5=
EXTT6=
EXTT7=
EXTT8=
EXTT9=
PLAYORDER=
